<svg width="158" height="12" viewBox="0 0 158 12" fill="none" xmlns="http://www.w3.org/2000/svg">
<path d="M62.0449 0.218506H64.6324V8.99876H67.8092L69.4911 11.2988H62.042V0.218506H62.0449Z" fill="currentColor"/>
<path d="M76.5749 0.218506L81.0714 11.2988H78.3459L77.4978 9.05913H73.3032L72.4867 11.2988H69.9136L74.2864 0.218506H76.5721H76.5749ZM76.6813 6.89426L75.3646 3.44426L74.1082 6.89426H76.6813Z" fill="currentColor"/>
<path d="M88.8829 0.218506H91.4704V6.81663C91.4704 7.76538 91.2749 8.59338 90.8867 9.30063C90.4986 10.0079 89.938 10.5484 89.2077 10.9279C88.4746 11.3074 87.6064 11.4971 86.5972 11.4971C85.5881 11.4971 84.717 11.3074 83.9867 10.9279C83.2536 10.5513 82.6959 10.0079 82.3077 9.30063C81.9196 8.59338 81.7241 7.76538 81.7241 6.81663V0.218506H84.3116V6.13813C84.3116 7.16738 84.5129 7.92351 84.9183 8.40938C85.3208 8.89526 85.8814 9.13676 86.5972 9.13676C87.3131 9.13676 87.8737 8.89526 88.2762 8.40938C88.6787 7.92638 88.8829 7.16738 88.8829 6.13813V0.218506Z" fill="currentColor"/>
<path d="M95.6017 0.218506L100.627 6.94026V0.218506H102.988V11.2988H100.915L95.8892 4.56263V9.61688L93.5288 11.2988V0.218506H95.6017Z" fill="currentColor"/>
<path d="M112.208 7.544L114.373 8.81475C114.212 9.30063 113.933 9.74625 113.539 10.1545C113.145 10.5628 112.654 10.8876 112.064 11.132C111.475 11.3764 110.816 11.4971 110.089 11.4971C109.089 11.4971 108.177 11.2585 107.349 10.7841C106.521 10.3098 105.866 9.637 105.383 8.763C104.9 7.889 104.655 6.88275 104.655 5.74138C104.655 4.6 104.897 3.59663 105.383 2.72838C105.869 1.86013 106.524 1.19025 107.349 0.715878C108.177 0.241503 109.091 0.00575256 110.089 0.00575256C110.816 0.00575256 111.475 0.126503 112.064 0.368003C112.654 0.609503 113.145 0.934379 113.539 1.3455C113.933 1.75663 114.209 2.19938 114.373 2.68525L112.208 3.956C111.754 2.90663 111.026 2.38338 110.029 2.38338C109.534 2.38338 109.089 2.5185 108.689 2.783C108.289 3.05038 107.973 3.4385 107.734 3.94738C107.496 4.45625 107.378 5.05425 107.378 5.74138C107.378 6.4285 107.496 7.02938 107.734 7.544C107.973 8.05863 108.289 8.44963 108.689 8.717C109.089 8.98438 109.534 9.1195 110.029 9.1195C111.026 9.1195 111.754 8.59338 112.208 7.544Z" fill="currentColor"/>
<path d="M118.277 4.41025H122.848V0.218506H125.436V9.61688L122.848 11.2988V6.69876H118.277V9.61688L115.689 11.2988V0.218506H118.277V4.41025Z" fill="currentColor"/>
<path d="M131.646 0.218506C132.574 0.218506 133.382 0.370881 134.067 0.681381C134.754 0.989006 135.28 1.426 135.648 1.9895C136.016 2.55588 136.2 3.21426 136.2 3.97326C136.2 4.73226 136.016 5.39063 135.648 5.95701C135.28 6.52338 134.751 6.9575 134.067 7.26513C133.38 7.57275 132.572 7.728 131.646 7.728H130.223V9.61976L127.635 11.3016V0.221379H131.646V0.218506ZM131.358 5.54588C131.985 5.54588 132.494 5.42513 132.888 5.18075C133.282 4.93925 133.477 4.53388 133.477 3.97038C133.477 3.40688 133.279 3.01588 132.879 2.76863C132.48 2.52138 131.974 2.39775 131.358 2.39775H130.223V5.54588H131.358Z" fill="currentColor"/>
<path d="M141.892 0.218506L146.389 11.2988H143.663L142.815 9.05913H138.621L137.804 11.2988H135.231L139.604 0.218506H141.889H141.892ZM141.999 6.89426L140.682 3.44426L139.426 6.89426H141.999Z" fill="currentColor"/>
<path d="M151.564 0.218498C152.645 0.218498 153.622 0.434121 154.499 0.868246C155.376 1.30237 156.072 1.93487 156.581 2.76862C157.089 3.5995 157.345 4.59137 157.345 5.74137C157.345 6.89137 157.089 7.88612 156.581 8.72275C156.072 9.55937 155.379 10.1976 154.508 10.6375C153.634 11.0774 152.653 11.2959 151.564 11.2959H147.567V0.215622H151.564V0.218498ZM151.276 9.1195C152.374 9.1195 153.208 8.82625 153.775 8.24262C154.341 7.659 154.623 6.82525 154.623 5.74425C154.623 4.66325 154.338 3.84962 153.769 3.26887C153.2 2.68812 152.369 2.39775 151.279 2.39775H150.158V9.1195H151.279H151.276Z" fill="currentColor"/>
<path d="M0.770076 2.6856C1.2502 1.81735 1.90282 1.1561 2.73082 0.696097C3.55882 0.236097 4.47307 0.00897217 5.4707 0.00897217C6.46832 0.00897217 7.3797 0.238972 8.20195 0.696097C9.0242 1.1561 9.67683 1.82022 10.1627 2.6856C10.6486 3.55385 10.8901 4.5716 10.8901 5.74172C10.8901 6.91185 10.6486 7.94685 10.1627 8.8151C9.67683 9.68335 9.0242 10.3475 8.20195 10.8046C7.3797 11.2646 6.46832 11.4946 5.4707 11.4946C4.47307 11.4946 3.54445 11.2646 2.72507 10.8046C1.90282 10.3446 1.2502 9.68335 0.772949 8.8151C0.292824 7.94685 0.0541992 6.92335 0.0541992 5.74172C0.0541992 4.5601 0.292824 3.55097 0.772949 2.6856H0.770076ZM3.13045 7.52997C3.35757 8.0446 3.67383 8.44135 4.07633 8.71735C4.4817 8.99622 4.94457 9.13422 5.46782 9.13422C5.99107 9.13422 6.4597 8.99622 6.86795 8.71735C7.2762 8.44135 7.59533 8.0446 7.82245 7.52997C8.04958 7.01535 8.16457 6.42022 8.16457 5.7446C8.16457 5.06897 8.05245 4.4911 7.82245 3.98222C7.59533 3.47335 7.27907 3.07947 6.86795 2.8006C6.4597 2.5246 5.99107 2.38372 5.46782 2.38372C4.94457 2.38372 4.47883 2.52172 4.07633 2.8006C3.67383 3.07947 3.35757 3.47335 3.13045 3.98222C2.90332 4.4911 2.7912 5.08047 2.7912 5.7446C2.7912 6.40872 2.90332 7.01535 3.13045 7.52997Z" fill="currentColor"/>
<path d="M16.5653 0.218506C17.4939 0.218506 18.3018 0.370881 18.9861 0.681381C19.6732 0.989006 20.1993 1.426 20.5673 1.9895C20.9353 2.55588 21.1193 3.21426 21.1193 3.97326C21.1193 4.73226 20.9353 5.39063 20.5673 5.95701C20.1993 6.52338 19.6703 6.9575 18.9861 7.26513C18.2989 7.57275 17.4911 7.728 16.5653 7.728H15.1422V11.3016L12.5547 9.61976V0.221379H16.5653V0.218506ZM16.2778 5.54588C16.9046 5.54588 17.4134 5.42513 17.8073 5.18075C18.2012 4.93925 18.3967 4.53388 18.3967 3.97038C18.3967 3.40688 18.1983 3.01588 17.7987 2.76863C17.3991 2.52138 16.8931 2.39775 16.2778 2.39775H15.1422V5.54588H16.2778Z" fill="currentColor"/>
<path d="M29.5746 10.0424C29.1462 10.557 28.6086 10.9279 27.9617 11.155C27.3148 11.3821 26.6564 11.4971 25.9779 11.4971C24.9602 11.4971 24.0258 11.2614 23.1777 10.7928C22.3296 10.3241 21.7632 9.64563 21.4814 8.75725L23.5716 7.56126C23.7929 8.07588 24.1178 8.4755 24.5491 8.75725C24.9774 9.04188 25.4834 9.18276 26.0699 9.18276C26.5041 9.18276 26.8548 9.09938 27.1222 8.93263C27.3896 8.76588 27.5247 8.5215 27.5247 8.1995C27.5247 7.93788 27.4327 7.71938 27.2516 7.54976C27.0704 7.38013 26.8433 7.23638 26.5702 7.12713C26.2971 7.01501 25.9147 6.8885 25.4202 6.74763C24.6928 6.53488 24.1006 6.32501 23.6434 6.11226C23.1834 5.89951 22.7867 5.58038 22.4561 5.152C22.1226 4.72363 21.9558 4.16013 21.9558 3.46438C21.9558 2.69676 22.1542 2.05563 22.5538 1.54101C22.9534 1.02638 23.4709 0.644005 24.1121 0.391005C24.7532 0.138005 25.4403 0.0115051 26.1792 0.0115051C27.1481 0.0115051 27.9962 0.23288 28.7236 0.678505C29.4509 1.12413 29.9196 1.75376 30.1323 2.57026L28.0134 3.76625C27.8524 3.312 27.6023 2.95838 27.2631 2.70825C26.9238 2.45813 26.5127 2.32875 26.0297 2.32875C25.6157 2.32875 25.2793 2.42363 25.0234 2.61625C24.7676 2.80888 24.6382 3.05613 24.6382 3.358C24.6382 3.59088 24.7273 3.78638 24.9027 3.94738C25.0781 4.10838 25.2994 4.24063 25.5611 4.34125C25.8227 4.44188 26.1964 4.56838 26.6823 4.72075C27.4298 4.94213 28.0336 5.1635 28.4993 5.37913C28.9651 5.59475 29.3676 5.9225 29.7097 6.35663C30.0518 6.79075 30.2243 7.35426 30.2243 8.05288C30.2243 8.86938 30.0087 9.53638 29.5803 10.051L29.5746 10.0424Z" fill="currentColor"/>
<path d="M34.1832 11.2988L31.5957 9.61688V0.218506H34.1832V11.2988Z" fill="currentColor"/>
<path fill-rule="evenodd" clip-rule="evenodd" d="M42.886 8.21963C42.2967 8.85213 41.4888 9.1655 40.4567 9.1655H39.2578V2.19363H40.4567C41.4859 2.19363 42.2967 2.50988 42.886 3.1395C43.2972 3.588 43.5703 4.14288 43.6767 4.74088H46.4453C46.2843 3.55925 45.7035 2.4725 44.8094 1.68188C43.6738 0.655503 42.2219 0.143753 40.4567 0.143753H36.561V11.2154H40.4567C42.2219 11.2154 43.6738 10.7008 44.8094 9.6715C45.7352 8.832 46.2843 7.56413 46.4539 6.32213H43.691C43.5674 6.98913 43.3029 7.774 42.8832 8.21963H42.886Z" fill="currentColor"/>
<path fill-rule="evenodd" clip-rule="evenodd" d="M55.6139 2.16488L56.4419 0.115005H48.6133V4.74376H51.2238V6.32213H48.6133V11.2154H56.4419V9.16551H51.3072V6.59813H55.0677V4.7725H51.31V2.16488H55.6139Z" fill="currentColor"/>
</svg>
