<svg width="653" height="80" xmlns="http://www.w3.org/2000/svg">

 <mask height="40" width="555" y="22" x="98" maskUnits="userSpaceOnUse" id="mask0_1658_17328">
  <path id="svg_1" fill="white" d="m652.704,22l-554.704,0l0,39.97l554.704,0l0,-39.97z"/>
 </mask>
 <g>
  <title>background</title>
  <rect fill="none" id="canvas_background" height="402" width="582" y="-1" x="-1"/>
 </g>
 <g>
  <title>Layer 1</title>
  <g stroke="null" id="svg_24">
   <path stroke="null" id="svg_6" fill="#040000" d="m271.246338,20.473998l10.333122,0l0,35.036455l12.686582,0l6.718293,9.18966l-29.725065,0l0,-44.226115l-0.012931,0z"/>
   <path stroke="null" id="svg_7" fill="#040000" d="m329.250538,20.473998l17.944836,44.226115l-10.871526,0l-3.379719,-8.939855l-16.735191,0l-3.260988,8.939855l-10.267291,0l17.459332,-44.226115l9.123477,0l-0.012931,0zm0.420848,26.648757l-5.25943,-13.777966l-5.009037,13.777966l10.268467,0z"/>
   <path stroke="null" id="svg_8" fill="#040000" d="m378.380477,20.473998l10.333122,0l0,26.346405c0,3.786225 -0.775866,7.086124 -2.326422,9.912626c-1.551732,2.82662 -3.78646,4.982704 -6.705362,6.494585c-2.918901,1.51188 -6.389137,2.274462 -10.424815,2.274462c-4.036853,0 -7.50709,-0.762582 -10.425991,-2.274462c-2.918901,-1.51188 -5.15363,-3.681131 -6.705362,-6.494585c-1.550556,-2.813336 -2.326422,-6.126401 -2.326422,-9.912626l0,-26.346405l10.333122,0l0,23.624997c0,4.101744 0.801728,7.125505 2.419291,9.058116c1.603456,1.932611 3.83936,2.9055 6.705362,2.9055c2.866001,0 5.087799,-0.972889 6.704186,-2.9055c1.604632,-1.932611 2.419291,-4.956372 2.419291,-9.058116l0,-23.624997z"/>
   <path stroke="null" id="svg_9" fill="#040000" d="m405.200748,20.473998l20.062009,26.832732l0,-26.832732l9.425594,0l0,44.226115l-8.28178,0l-20.062009,-26.885397l0,20.167339l-9.42677,6.718058l0,-44.226115l8.282955,0z"/>
   <path stroke="null" id="svg_10" fill="#040000" d="m471.4832,49.725786l8.637973,5.074633c-0.644204,1.932611 -1.748049,3.720629 -3.325643,5.35077c-1.564663,1.630259 -3.537243,2.931832 -5.890702,3.891555c-2.352284,0.959723 -4.981999,1.446049 -7.887969,1.446049c-3.982778,0 -7.637576,-0.946556 -10.937357,-2.839669c-3.300956,-1.893113 -5.916565,-4.57514 -7.849176,-8.059012c-1.932611,-3.48399 -2.90597,-7.506854 -2.90597,-12.055662c0,-4.548807 0.973359,-8.558623 2.90597,-12.029447c1.932611,-3.457658 4.548219,-6.139567 7.849176,-8.03268c3.299781,-1.89323 6.954579,-2.839786 10.937357,-2.839786c2.893039,0 5.521578,0.486444 7.887969,1.446167c2.366391,0.959723 4.32604,2.261296 5.890702,3.891437c1.563487,1.630259 2.681439,3.418277 3.325643,5.35077l-8.637973,5.07475c-1.81388,-4.180741 -4.718675,-6.28416 -8.702628,-6.28416c-1.97258,0 -3.760598,0.538992 -5.351123,1.603926c-1.590525,1.064817 -2.866001,2.616196 -3.812323,4.653902c-0.946321,2.037823 -1.42007,4.41738 -1.42007,7.165121c0,2.747623 0.473748,5.140346 1.42007,7.191336c0.946321,2.050872 2.221798,3.615417 3.812323,4.680234c1.590525,1.064935 3.378543,1.603926 5.351123,1.603926c3.983953,0 6.888748,-2.090371 8.702628,-6.28416z"/>
   <path stroke="null" id="svg_11" fill="#040000" d="m495.70197,37.210012l18.248129,0l0,-16.736014l10.333122,0l0,37.508058l-10.333122,6.718058l0,-18.366155l-18.248129,0l0,11.648097l-10.333122,6.718058l0,-44.226115l10.333122,0l0,16.736014z"/>
   <path stroke="null" id="svg_12" fill="#040000" d="m549.06508,20.473411c3.707698,0 6.928717,0.617871 9.663056,1.840565c2.734339,1.23586 4.838581,2.971213 6.310375,5.219343c1.47297,2.261179 2.208866,4.890658 2.208866,7.914419c0,3.023761 -0.735897,5.653123 -2.208866,7.914419c-1.471794,2.261179 -3.576036,3.996649 -6.310375,5.219226c-2.734339,1.23586 -5.968289,1.840565 -9.663056,1.840565l-5.679103,0l0,7.546353l-10.333122,6.718058l0,-44.226115l16.012225,0l0,0.013166zm-1.156745,21.271655c2.498053,0 4.535288,-0.486444 6.099951,-1.446167c1.564663,-0.959723 2.35346,-2.576815 2.35346,-4.837994c0,-2.261296 -0.801728,-3.812675 -2.392253,-4.798613c-1.590525,-0.986055 -3.616005,-1.485665 -6.074089,-1.485665l-4.535288,0l0,12.568439l4.535288,0l0.012931,0z"/>
   <path stroke="null" id="svg_13" fill="#040000" d="m590.055482,20.053855l17.946012,44.226115l-10.872701,0l-3.378543,-8.939855l-16.736366,0l-3.259812,8.939855l-10.268467,0l17.459332,-44.226115l9.124652,0l-0.014107,0zm0.420848,26.648757l-5.258254,-13.777966l-5.009037,13.777966l10.267291,0z"/>
   <path stroke="null" id="svg_14" fill="#040000" d="m628.565465,20.473998c4.311933,0 8.217124,0.867677 11.727329,2.589981c3.510205,1.735353 6.270407,4.259621 8.308818,7.585734c2.037236,3.326113 3.049388,7.283382 3.049388,11.87157c0,4.588306 -1.012152,8.558623 -3.049388,11.911069c-2.038411,3.339397 -4.798613,5.88988 -8.282955,7.638399c-3.484343,1.748519 -7.40129,2.629362 -11.753192,2.629362l-15.947569,0l0,-44.226115l15.947569,0zm-1.143814,35.522899c4.390695,0 7.717514,-1.170147 9.965174,-3.510205c2.24766,-2.340176 3.378543,-5.666289 3.378543,-9.965409c0,-4.299002 -1.143814,-7.559402 -3.417336,-9.873245c-2.274698,-2.313843 -5.587409,-3.470824 -9.939311,-3.470824l-4.470633,0l0,26.832849l4.470633,0l0.012931,-0.013166z"/>
   <path stroke="null" id="svg_15" fill="black" d="m183.12679,26.058234c-4.176744,-4.28372 -9.318619,-6.425697 -15.435028,-6.425697c-6.116409,0 -11.280619,2.141977 -15.493805,6.418409c-4.213187,4.276431 -6.315078,9.705023 -6.323306,16.285894c0,6.566058 2.11012,12.002056 6.323306,16.307994c4.168515,4.143476 9.694796,6.447915 15.442081,6.447915c5.747285,0 11.280619,-2.311845 15.442081,-6.447915c4.197904,-4.298532 6.293918,-9.734647 6.293918,-16.307994c0,-6.573464 -2.08896,-12.002174 -6.257475,-16.278605l0.008229,0zm-7.319001,25.569951c-2.037236,2.333945 -4.758644,3.500918 -8.174804,3.500918c-3.416161,0 -6.138744,-1.159567 -8.174804,-3.4787c-2.037236,-2.311727 -3.055266,-5.413898 -3.055266,-9.291463c0,-3.877566 1.026259,-6.979618 3.055266,-9.298869c2.029007,-2.319133 4.758644,-3.4787 8.174804,-3.4787c3.416161,0 6.137569,1.159567 8.166576,3.4787c2.044289,2.319251 3.055266,5.421304 3.055266,9.298869c0,3.877566 -1.026259,6.964924 -3.055266,9.269245l0.008229,0z" clip-rule="evenodd" fill-rule="evenodd"/>
   <path stroke="null" id="svg_16" fill="black" d="m12.350494,20.026347l-10.235316,0l0,45.199239l10.235316,0l0,-45.199239z"/>
   <path stroke="null" id="svg_17" fill="black" d="m30.479892,65.248157l0,-10.212393l-24.828882,0l0,10.189822l24.828882,0.022571z"/>
   <path stroke="null" id="svg_18" fill="black" d="m38.867472,47.278752l0,-27.39018l10.745742,0l0,27.39018c0,2.639237 0.648906,4.670947 1.947893,6.095366c1.297812,1.424302 3.204561,2.136452 5.717896,2.136452c2.513335,0 4.440068,-0.712151 5.781376,-2.136452c1.340132,-1.424419 2.010198,-3.45613 2.010198,-6.095366l0,-27.39018l10.745742,0l0,27.39018c0,3.896022 -0.921635,7.268335 -2.764904,10.117055c-1.800949,2.806753 -4.105036,4.859506 -6.912259,6.158141c-2.764904,1.298635 -5.781376,1.948011 -9.048241,1.948011c-5.11131,0 -9.425594,-1.591936 -12.945204,-4.775807c-3.518434,-3.183754 -5.278239,-7.66626 -5.278239,-13.4474z"/>
   <path stroke="null" id="svg_19" fill="black" d="m135.811906,20.385597l0,44.466281l-10.745742,0l0,-25.237622l-10.242604,25.237622l-7.980838,0l-10.242604,-25.237622l0,25.237622l-10.744566,0l0,-44.466281l12.316282,0l12.69246,30.413823l12.631331,-30.413823l12.316282,0z"/>
   <path stroke="null" id="svg_20" fill="black" d="m237.656051,20.563576l-21.721892,0l-8.181858,4.909115l1.443581,4.812837l12.754764,0c7.668141,5.165738 0,15.866339 0,15.866339l17.630963,-20.262089l-1.925558,-5.326201z"/>
   <rect stroke="null" id="svg_21" fill="black" height="9.770067" width="30.705948" y="20.564751" x="198.448964"/>
   <path stroke="null" id="svg_22" fill="black" d="m200.367469,64.30019l21.721892,0l8.181858,-4.909115l-1.443581,-4.812837l-12.753588,0c-7.669316,-5.165738 0,-15.866339 0,-15.866339l-17.630963,20.262089l1.924382,5.326201z"/>
   <rect stroke="null" id="svg_23" fill="black" transform="matrix(-1.1755542755126953,0,0,-1.1755542755126953,593.5586445275694,133.2198484925611) " height="8.31103" width="26.1204" y="58.627369" x="301.117"/>
  </g>
 </g>
</svg>