<svg width="80" height="80" xmlns="http://www.w3.org/2000/svg">

 <mask height="40" width="555" y="22" x="98" maskUnits="userSpaceOnUse" id="mask0_1658_17328">
  <path id="svg_1" fill="white" d="m653.704,23l-554.704,0l0,39.97l554.704,0l0,-39.97z"/>
 </mask>
 <g>
  <title>background</title>
  <rect fill="none" id="canvas_background" height="82" width="82" y="-1" x="-1"/>
 </g>
 <g>
  <title>Layer 1</title>
  <g stroke="null" id="svg_24">
   <path stroke="null" id="svg_2" fill="#BEFE00" d="m68.3407,69.6894l0,-46.02c0,-5 -4.0699,-9.06 -9.0699,-9.06l-46.0201,0c-3.72997,0 -6.93996,2.15 -8.36996,5.6c-0.17,0.41 -0.30004,0.82 -0.41004,1.24c0.32,0.41 0.65004,0.82 1.04004,1.21l2.29004,2.29l49.32992,0l0,49.33l2.2901,2.29c0.75,0.75 1.55,1.33 2.38,1.84c0.32,-0.09 0.6399,-0.19 0.9499,-0.32c3.45,-1.43 5.6,-4.64 5.6,-8.38l-0.01,-0.02z"/>
   <path stroke="null" id="svg_3" fill="#BEFE00" d="m68.1507,1.51953l-53.9001,0c-9.09997,0 -14.42997,9.09 -11.61997,16.64997c2.06,-4.02 6.02,-6.49 10.61997,-6.49l46.02,0c6.61,0 11.99,5.38 11.99,11.99l0,46.02c0,4.29 -2.1499,8.06 -5.7099,10.21c7.16,1.51 14.9599,-3.67 14.9599,-12.11l0,-53.9c0,-6.82997 -5.54,-12.36997 -12.37,-12.36997l0.0101,0z"/>
   <path stroke="null" id="svg_4" fill="#BEFE00" d="m35.6708,39.5293l-27.06007,0c-6.18,0 -9.28004,7.48 -4.91004,11.85l27.06011,27.06c4.37,4.37 11.8499,1.28 11.8499,-4.91l0,-27.06c0,-3.83 -3.1099,-6.94 -6.9399,-6.94zm-12.9601,19.22c-4.85,-4.85 -1.4099,-13.14 5.4401,-13.14c4.25,0 7.6999,3.45 7.6999,7.7c0,6.86 -8.29,10.29 -13.14,5.44z"/>
  </g>
 </g>
</svg>