<svg width="230" height="58" viewBox="0 0 230 58" fill="none" xmlns="http://www.w3.org/2000/svg">
<g clip-path="url(#clip0_525_85731)">
<mask id="mask0_525_85731" style="mask-type:luminance" maskUnits="userSpaceOnUse" x="0" y="0" width="230" height="58">
<path d="M230 0H0V57.5H230V0Z" fill="white"/>
</mask>
<g mask="url(#mask0_525_85731)">
<path d="M40.8222 36.7109V23.7676C40.8222 22.3301 39.6521 21.1629 38.2146 21.1629H25.2713C24.1989 21.1629 23.2761 21.781 22.8649 22.7729C22.8161 22.8908 22.7787 23.0086 22.7471 23.1294C22.8391 23.2473 22.9339 23.3651 23.0461 23.4773L23.7044 24.1356H37.5993V38.0305L38.2577 38.6889C38.4733 38.9045 38.7033 39.0713 38.9419 39.2179C39.0339 39.192 39.1259 39.1633 39.2151 39.1259C40.2069 38.7148 40.8251 37.7919 40.8251 36.7166L40.8222 36.7109Z" fill="#BEFE00"/>
<path d="M40.7676 17.3995H25.5588C22.9426 17.3995 21.4102 20.0129 22.2181 22.1864C22.8103 21.0306 23.9488 20.3205 25.2713 20.3205H38.2146C40.1149 20.3205 41.6617 21.8673 41.6617 23.7676V36.7109C41.6617 37.9443 41.0436 39.0281 40.0201 39.6463C42.0786 40.0804 44.3211 38.5911 44.3211 36.1646V20.9559C44.3211 18.9923 42.7283 17.3995 40.7647 17.3995H40.7676Z" fill="#BEFE00"/>
<path d="M31.4325 28.3274H23.6527C21.876 28.3274 20.9847 30.4779 22.2411 31.7343L30.0209 39.514C31.2772 40.7704 33.4277 39.882 33.4277 38.1024V30.3226C33.4277 29.2215 32.5336 28.3274 31.4325 28.3274ZM27.7065 33.8531C26.3121 32.4588 27.3011 30.0754 29.2705 30.0754C30.4924 30.0754 31.4842 31.0673 31.4842 32.2891C31.4842 34.2614 29.1009 35.2475 27.7065 33.8531Z" fill="#BEFE00"/>
<path d="M113.045 23.2185H115.632V31.9988H118.809L120.491 34.2988H113.042V23.2185H113.045Z" fill="#040000"/>
<path d="M127.575 23.2185L132.071 34.2988H129.346L128.498 32.0591H124.303L123.487 34.2988H120.914L125.286 23.2185H127.572H127.575ZM127.681 29.8943L126.365 26.4443L125.108 29.8943H127.681Z" fill="#040000"/>
<path d="M139.883 23.2185H142.47V29.8166C142.47 30.7654 142.275 31.5934 141.887 32.3006C141.499 33.0079 140.938 33.5484 140.208 33.9279C139.475 34.3074 138.606 34.4971 137.597 34.4971C136.588 34.4971 135.717 34.3074 134.987 33.9279C134.254 33.5513 133.696 33.0079 133.308 32.3006C132.92 31.5934 132.724 30.7654 132.724 29.8166V23.2185H135.312V29.1381C135.312 30.1674 135.513 30.9235 135.918 31.4094C136.321 31.8953 136.881 32.1368 137.597 32.1368C138.313 32.1368 138.874 31.8953 139.276 31.4094C139.679 30.9264 139.883 30.1674 139.883 29.1381V23.2185Z" fill="#040000"/>
<path d="M146.602 23.2185L151.627 29.9403V23.2185H153.988V34.2988H151.915L146.889 27.5626V32.6169L144.529 34.2988V23.2185H146.602Z" fill="#040000"/>
<path d="M163.208 30.544L165.373 31.8148C165.212 32.3006 164.933 32.7463 164.539 33.1545C164.145 33.5628 163.654 33.8876 163.064 34.132C162.475 34.3764 161.816 34.4971 161.089 34.4971C160.089 34.4971 159.177 34.2585 158.349 33.7841C157.521 33.3098 156.866 32.637 156.383 31.763C155.9 30.889 155.655 29.8828 155.655 28.7414C155.655 27.6 155.897 26.5966 156.383 25.7284C156.869 24.8601 157.524 24.1903 158.349 23.7159C159.177 23.2415 160.091 23.0058 161.089 23.0058C161.816 23.0058 162.475 23.1265 163.064 23.368C163.654 23.6095 164.145 23.9344 164.539 24.3455C164.933 24.7566 165.209 25.1994 165.373 25.6853L163.208 26.956C162.754 25.9066 162.026 25.3834 161.029 25.3834C160.534 25.3834 160.089 25.5185 159.689 25.783C159.289 26.0504 158.973 26.4385 158.734 26.9474C158.496 27.4563 158.378 28.0543 158.378 28.7414C158.378 29.4285 158.496 30.0294 158.734 30.544C158.973 31.0586 159.289 31.4496 159.689 31.717C160.089 31.9844 160.534 32.1195 161.029 32.1195C162.026 32.1195 162.754 31.5934 163.208 30.544Z" fill="#040000"/>
<path d="M169.277 27.4103H173.848V23.2185H176.436V32.6169L173.848 34.2988V29.6988H169.277V32.6169L166.689 34.2988V23.2185H169.277V27.4103Z" fill="#040000"/>
<path d="M182.646 23.2185C183.574 23.2185 184.382 23.3709 185.067 23.6814C185.754 23.989 186.28 24.426 186.648 24.9895C187.016 25.5559 187.2 26.2143 187.2 26.9733C187.2 27.7323 187.016 28.3906 186.648 28.957C186.28 29.5234 185.751 29.9575 185.067 30.2651C184.38 30.5728 183.572 30.728 182.646 30.728H181.223V32.6198L178.635 34.3016V23.2214H182.646V23.2185ZM182.358 28.5459C182.985 28.5459 183.494 28.4251 183.888 28.1808C184.282 27.9393 184.477 27.5339 184.477 26.9704C184.477 26.4069 184.279 26.0159 183.879 25.7686C183.48 25.5214 182.974 25.3978 182.358 25.3978H181.223V28.5459H182.358Z" fill="#040000"/>
<path d="M192.892 23.2185L197.389 34.2988H194.663L193.815 32.0591H189.621L188.804 34.2988H186.231L190.604 23.2185H192.889H192.892ZM192.999 29.8943L191.682 26.4443L190.426 29.8943H192.999Z" fill="#040000"/>
<path d="M202.564 23.2185C203.645 23.2185 204.622 23.4341 205.499 23.8682C206.376 24.3024 207.072 24.9349 207.581 25.7686C208.089 26.5995 208.345 27.5914 208.345 28.7414C208.345 29.8914 208.089 30.8861 207.581 31.7227C207.072 32.5594 206.379 33.1976 205.508 33.6375C204.634 34.0774 203.653 34.2959 202.564 34.2959H198.567V23.2156H202.564V23.2185ZM202.276 32.1195C203.374 32.1195 204.208 31.8262 204.775 31.2426C205.341 30.659 205.623 29.8252 205.623 28.7442C205.623 27.6632 205.338 26.8496 204.769 26.2689C204.2 25.6881 203.369 25.3977 202.279 25.3977H201.158V32.1195H202.279H202.276Z" fill="#040000"/>
<path d="M51.7701 25.6856C52.2502 24.8173 52.9028 24.1561 53.7308 23.6961C54.5588 23.2361 55.4731 23.009 56.4707 23.009C57.4683 23.009 58.3797 23.239 59.2019 23.6961C60.0242 24.1561 60.6768 24.8202 61.1627 25.6856C61.6486 26.5538 61.8901 27.5716 61.8901 28.7417C61.8901 29.9118 61.6486 30.9468 61.1627 31.8151C60.6768 32.6833 60.0242 33.3475 59.2019 33.8046C58.3797 34.2646 57.4683 34.4946 56.4707 34.4946C55.4731 34.4946 54.5444 34.2646 53.7251 33.8046C52.9028 33.3446 52.2502 32.6833 51.7729 31.8151C51.2928 30.9468 51.0542 29.9233 51.0542 28.7417C51.0542 27.5601 51.2928 26.551 51.7729 25.6856H51.7701ZM54.1304 30.53C54.3576 31.0446 54.6738 31.4413 55.0763 31.7173C55.4817 31.9962 55.9446 32.1342 56.4678 32.1342C56.9911 32.1342 57.4597 31.9962 57.8679 31.7173C58.2762 31.4413 58.5953 31.0446 58.8225 30.53C59.0496 30.0153 59.1646 29.4202 59.1646 28.7446C59.1646 28.069 59.0525 27.4911 58.8225 26.9822C58.5953 26.4733 58.2791 26.0795 57.8679 25.8006C57.4597 25.5246 56.9911 25.3837 56.4678 25.3837C55.9446 25.3837 55.4788 25.5217 55.0763 25.8006C54.6738 26.0795 54.3576 26.4733 54.1304 26.9822C53.9033 27.4911 53.7912 28.0805 53.7912 28.7446C53.7912 29.4087 53.9033 30.0153 54.1304 30.53Z" fill="#040000"/>
<path d="M67.5653 23.2185C68.4939 23.2185 69.3018 23.3709 69.9861 23.6814C70.6732 23.989 71.1993 24.426 71.5673 24.9895C71.9353 25.5559 72.1193 26.2143 72.1193 26.9733C72.1193 27.7323 71.9353 28.3906 71.5673 28.957C71.1993 29.5234 70.6703 29.9575 69.9861 30.2651C69.2989 30.5728 68.4911 30.728 67.5653 30.728H66.1422V34.3016L63.5547 32.6198V23.2214H67.5653V23.2185ZM67.2778 28.5459C67.9046 28.5459 68.4134 28.4251 68.8073 28.1808C69.2012 27.9393 69.3967 27.5339 69.3967 26.9704C69.3967 26.4069 69.1983 26.0159 68.7987 25.7686C68.3991 25.5214 67.8931 25.3978 67.2778 25.3978H66.1422V28.5459H67.2778Z" fill="#040000"/>
<path d="M80.5746 33.0424C80.1462 33.557 79.6086 33.9279 78.9617 34.155C78.3148 34.3821 77.6564 34.4971 76.9779 34.4971C75.9602 34.4971 75.0258 34.2614 74.1777 33.7928C73.3296 33.3241 72.7632 32.6456 72.4814 31.7573L74.5716 30.5613C74.7929 31.0759 75.1178 31.4755 75.5491 31.7573C75.9774 32.0419 76.4834 32.1828 77.0699 32.1828C77.5041 32.1828 77.8548 32.0994 78.1222 31.9326C78.3896 31.7659 78.5247 31.5215 78.5247 31.1995C78.5247 30.9379 78.4327 30.7194 78.2516 30.5498C78.0704 30.3801 77.8433 30.2364 77.5702 30.1271C77.2971 30.015 76.9147 29.8885 76.4202 29.7476C75.6928 29.5349 75.1006 29.325 74.6434 29.1123C74.1834 28.8995 73.7867 28.5804 73.4561 28.152C73.1226 27.7236 72.9558 27.1601 72.9558 26.4644C72.9558 25.6968 73.1542 25.0556 73.5538 24.541C73.9534 24.0264 74.4709 23.644 75.1121 23.391C75.7532 23.138 76.4403 23.0115 77.1792 23.0115C78.1481 23.0115 78.9962 23.2329 79.7236 23.6785C80.4509 24.1241 80.9196 24.7538 81.1323 25.5703L79.0134 26.7663C78.8524 26.312 78.6023 25.9584 78.2631 25.7083C77.9238 25.4581 77.5127 25.3288 77.0297 25.3288C76.6157 25.3288 76.2793 25.4236 76.0234 25.6163C75.7676 25.8089 75.6382 26.0561 75.6382 26.358C75.6382 26.5909 75.7273 26.7864 75.9027 26.9474C76.0781 27.1084 76.2994 27.2406 76.5611 27.3413C76.8227 27.4419 77.1964 27.5684 77.6823 27.7208C78.4298 27.9421 79.0336 28.1635 79.4993 28.3791C79.9651 28.5948 80.3676 28.9225 80.7097 29.3566C81.0518 29.7908 81.2243 30.3543 81.2243 31.0529C81.2243 31.8694 81.0087 32.5364 80.5803 33.051L80.5746 33.0424Z" fill="#040000"/>
<path d="M85.1832 34.2988L82.5957 32.6169V23.2185H85.1832V34.2988Z" fill="#040000"/>
<path fill-rule="evenodd" clip-rule="evenodd" d="M93.886 31.2196C93.2967 31.8521 92.4888 32.1655 91.4567 32.1655H90.2578V25.1936H91.4567C92.4859 25.1936 93.2967 25.5099 93.886 26.1395C94.2972 26.588 94.5703 27.1429 94.6767 27.7409H97.4453C97.2843 26.5593 96.7035 25.4725 95.8094 24.6819C94.6738 23.6555 93.2219 23.1438 91.4567 23.1438H87.561V34.2154H91.4567C93.2219 34.2154 94.6738 33.7008 95.8094 32.6715C96.7352 31.832 97.2843 30.5641 97.4539 29.3221H94.691C94.5674 29.9891 94.3029 30.774 93.8832 31.2196H93.886Z" fill="#040000"/>
<path fill-rule="evenodd" clip-rule="evenodd" d="M106.614 25.1649L107.442 23.115H99.6133V27.7438H102.224V29.3221H99.6133V34.2154H107.442V32.1655H102.307V29.5981H106.068V27.7725H102.31V25.1649H106.614Z" fill="#040000"/>
</g>
<g clip-path="url(#clip1_525_85731)">
<mask id="mask1_525_85731" style="mask-type:luminance" maskUnits="userSpaceOnUse" x="0" y="0" width="230" height="58">
<path d="M230 0H0V57.5H230V0Z" fill="white"/>
</mask>
<g mask="url(#mask1_525_85731)">
<path d="M40.8222 36.7109V23.7676C40.8222 22.3301 39.6521 21.1629 38.2146 21.1629H25.2713C24.1989 21.1629 23.2761 21.781 22.8649 22.7729C22.8161 22.8908 22.7787 23.0086 22.7471 23.1294C22.8391 23.2473 22.9339 23.3651 23.0461 23.4773L23.7044 24.1356H37.5993V38.0305L38.2577 38.6889C38.4733 38.9045 38.7033 39.0713 38.9419 39.2179C39.0339 39.192 39.1259 39.1633 39.2151 39.1259C40.2069 38.7148 40.8251 37.7919 40.8251 36.7166L40.8222 36.7109Z" fill="#040000"/>
<path d="M40.7676 17.3995H25.5588C22.9426 17.3995 21.4102 20.0129 22.2181 22.1864C22.8103 21.0306 23.9488 20.3205 25.2713 20.3205H38.2146C40.1149 20.3205 41.6617 21.8673 41.6617 23.7676V36.7109C41.6617 37.9443 41.0436 39.0281 40.0201 39.6463C42.0786 40.0804 44.3211 38.5911 44.3211 36.1646V20.9559C44.3211 18.9923 42.7283 17.3995 40.7647 17.3995H40.7676Z" fill="#040000"/>
<path d="M31.4325 28.3274H23.6527C21.876 28.3274 20.9847 30.4779 22.2411 31.7343L30.0209 39.514C31.2772 40.7704 33.4277 39.882 33.4277 38.1024V30.3226C33.4277 29.2215 32.5336 28.3274 31.4325 28.3274ZM27.7065 33.8531C26.3121 32.4588 27.3011 30.0754 29.2705 30.0754C30.4923 30.0754 31.4842 31.0673 31.4842 32.2891C31.4842 34.2614 29.1009 35.2475 27.7065 33.8531Z" fill="#040000"/>
<path d="M113.045 23.2185H115.632V31.9988H118.809L120.491 34.2988H113.042V23.2185H113.045Z" fill="#040000"/>
<path d="M127.575 23.2185L132.071 34.2988H129.346L128.498 32.0591H124.303L123.487 34.2988H120.914L125.286 23.2185H127.572H127.575ZM127.681 29.8943L126.365 26.4443L125.108 29.8943H127.681Z" fill="#040000"/>
<path d="M139.883 23.2185H142.47V29.8166C142.47 30.7654 142.275 31.5934 141.887 32.3006C141.499 33.0079 140.938 33.5484 140.208 33.9279C139.475 34.3074 138.606 34.4971 137.597 34.4971C136.588 34.4971 135.717 34.3074 134.987 33.9279C134.254 33.5513 133.696 33.0079 133.308 32.3006C132.92 31.5934 132.724 30.7654 132.724 29.8166V23.2185H135.312V29.1381C135.312 30.1674 135.513 30.9235 135.918 31.4094C136.321 31.8953 136.881 32.1368 137.597 32.1368C138.313 32.1368 138.874 31.8953 139.276 31.4094C139.679 30.9264 139.883 30.1674 139.883 29.1381V23.2185Z" fill="#040000"/>
<path d="M146.602 23.2185L151.627 29.9403V23.2185H153.988V34.2988H151.915L146.889 27.5626V32.6169L144.529 34.2988V23.2185H146.602Z" fill="#040000"/>
<path d="M163.208 30.544L165.373 31.8148C165.212 32.3006 164.933 32.7463 164.539 33.1545C164.145 33.5628 163.654 33.8876 163.064 34.132C162.475 34.3764 161.816 34.4971 161.089 34.4971C160.089 34.4971 159.177 34.2585 158.349 33.7841C157.521 33.3098 156.866 32.637 156.383 31.763C155.9 30.889 155.655 29.8828 155.655 28.7414C155.655 27.6 155.897 26.5966 156.383 25.7284C156.869 24.8601 157.524 24.1903 158.349 23.7159C159.177 23.2415 160.091 23.0058 161.089 23.0058C161.816 23.0058 162.475 23.1265 163.064 23.368C163.654 23.6095 164.145 23.9344 164.539 24.3455C164.933 24.7566 165.209 25.1994 165.373 25.6853L163.208 26.956C162.754 25.9066 162.026 25.3834 161.029 25.3834C160.534 25.3834 160.089 25.5185 159.689 25.783C159.289 26.0504 158.973 26.4385 158.734 26.9474C158.496 27.4563 158.378 28.0543 158.378 28.7414C158.378 29.4285 158.496 30.0294 158.734 30.544C158.973 31.0586 159.289 31.4496 159.689 31.717C160.089 31.9844 160.534 32.1195 161.029 32.1195C162.026 32.1195 162.754 31.5934 163.208 30.544Z" fill="#040000"/>
<path d="M169.277 27.4103H173.848V23.2185H176.436V32.6169L173.848 34.2988V29.6988H169.277V32.6169L166.689 34.2988V23.2185H169.277V27.4103Z" fill="#040000"/>
<path d="M182.646 23.2185C183.574 23.2185 184.382 23.3709 185.067 23.6814C185.754 23.989 186.28 24.426 186.648 24.9895C187.016 25.5559 187.2 26.2143 187.2 26.9733C187.2 27.7323 187.016 28.3906 186.648 28.957C186.28 29.5234 185.751 29.9575 185.067 30.2651C184.38 30.5728 183.572 30.728 182.646 30.728H181.223V32.6198L178.635 34.3016V23.2214H182.646V23.2185ZM182.358 28.5459C182.985 28.5459 183.494 28.4251 183.888 28.1808C184.282 27.9393 184.477 27.5339 184.477 26.9704C184.477 26.4069 184.279 26.0159 183.879 25.7686C183.48 25.5214 182.974 25.3978 182.358 25.3978H181.223V28.5459H182.358Z" fill="#040000"/>
<path d="M192.892 23.2185L197.389 34.2988H194.663L193.815 32.0591H189.621L188.804 34.2988H186.231L190.604 23.2185H192.889H192.892ZM192.999 29.8943L191.682 26.4443L190.426 29.8943H192.999Z" fill="#040000"/>
<path d="M202.564 23.2185C203.645 23.2185 204.622 23.4341 205.499 23.8682C206.376 24.3024 207.072 24.9349 207.581 25.7686C208.089 26.5995 208.345 27.5914 208.345 28.7414C208.345 29.8914 208.089 30.8861 207.581 31.7227C207.072 32.5594 206.379 33.1976 205.508 33.6375C204.634 34.0774 203.653 34.2959 202.564 34.2959H198.567V23.2156H202.564V23.2185ZM202.276 32.1195C203.374 32.1195 204.208 31.8262 204.775 31.2426C205.341 30.659 205.623 29.8252 205.623 28.7442C205.623 27.6632 205.338 26.8496 204.769 26.2689C204.2 25.6881 203.369 25.3977 202.279 25.3977H201.158V32.1195H202.279H202.276Z" fill="#040000"/>
<path d="M51.7701 25.6852C52.2502 24.817 52.9028 24.1557 53.7308 23.6957C54.5588 23.2357 55.4731 23.0086 56.4707 23.0086C57.4683 23.0086 58.3797 23.2386 59.2019 23.6957C60.0242 24.1557 60.6768 24.8199 61.1627 25.6852C61.6486 26.5535 61.8901 27.5712 61.8901 28.7414C61.8901 29.9115 61.6486 30.9465 61.1627 31.8147C60.6768 32.683 60.0242 33.3471 59.2019 33.8042C58.3797 34.2642 57.4683 34.4942 56.4707 34.4942C55.4731 34.4942 54.5444 34.2642 53.7251 33.8042C52.9028 33.3442 52.2502 32.683 51.7729 31.8147C51.2928 30.9465 51.0542 29.923 51.0542 28.7414C51.0542 27.5597 51.2928 26.5506 51.7729 25.6852H51.7701ZM54.1304 30.5296C54.3576 31.0442 54.6738 31.441 55.0763 31.717C55.4817 31.9959 55.9446 32.1339 56.4678 32.1339C56.9911 32.1339 57.4597 31.9959 57.8679 31.717C58.2762 31.441 58.5953 31.0442 58.8225 30.5296C59.0496 30.015 59.1646 29.4199 59.1646 28.7442C59.1646 28.0686 59.0525 27.4907 58.8225 26.9819C58.5953 26.473 58.2791 26.0791 57.8679 25.8002C57.4597 25.5242 56.9911 25.3834 56.4678 25.3834C55.9446 25.3834 55.4788 25.5214 55.0763 25.8002C54.6738 26.0791 54.3576 26.473 54.1304 26.9819C53.9033 27.4907 53.7912 28.0801 53.7912 28.7442C53.7912 29.4084 53.9033 30.015 54.1304 30.5296Z" fill="#040000"/>
<path d="M67.5653 23.2185C68.4939 23.2185 69.3018 23.3709 69.9861 23.6814C70.6732 23.989 71.1993 24.426 71.5673 24.9895C71.9353 25.5559 72.1193 26.2143 72.1193 26.9733C72.1193 27.7323 71.9353 28.3906 71.5673 28.957C71.1993 29.5234 70.6703 29.9575 69.9861 30.2651C69.2989 30.5728 68.4911 30.728 67.5653 30.728H66.1422V34.3016L63.5547 32.6198V23.2214H67.5653V23.2185ZM67.2778 28.5459C67.9046 28.5459 68.4134 28.4251 68.8073 28.1808C69.2012 27.9393 69.3967 27.5339 69.3967 26.9704C69.3967 26.4069 69.1983 26.0159 68.7987 25.7686C68.3991 25.5214 67.8931 25.3978 67.2778 25.3978H66.1422V28.5459H67.2778Z" fill="#040000"/>
<path d="M80.5746 33.0423C80.1462 33.557 79.6086 33.9278 78.9617 34.155C78.3148 34.3821 77.6564 34.4971 76.9779 34.4971C75.9602 34.4971 75.0258 34.2613 74.1777 33.7927C73.3296 33.3241 72.7632 32.6456 72.4814 31.7572L74.5716 30.5612C74.7929 31.0758 75.1178 31.4755 75.5491 31.7572C75.9774 32.0418 76.4834 32.1827 77.0699 32.1827C77.5041 32.1827 77.8548 32.0993 78.1222 31.9326C78.3896 31.7658 78.5247 31.5215 78.5247 31.1995C78.5247 30.9378 78.4327 30.7193 78.2516 30.5497C78.0704 30.3801 77.8433 30.2363 77.5702 30.1271C77.2971 30.015 76.9147 29.8885 76.4202 29.7476C75.6928 29.5348 75.1006 29.325 74.6434 29.1122C74.1834 28.8995 73.7867 28.5803 73.4561 28.152C73.1226 27.7236 72.9558 27.1601 72.9558 26.4643C72.9558 25.6967 73.1542 25.0556 73.5538 24.541C73.9534 24.0263 74.4709 23.644 75.1121 23.391C75.7532 23.138 76.4403 23.0115 77.1792 23.0115C78.1481 23.0115 78.9962 23.2328 79.7236 23.6785C80.4509 24.1241 80.9196 24.7537 81.1323 25.5702L79.0134 26.7662C78.8524 26.312 78.6023 25.9583 78.2631 25.7082C77.9238 25.4581 77.5127 25.3287 77.0297 25.3287C76.6157 25.3287 76.2793 25.4236 76.0234 25.6162C75.7676 25.8088 75.6382 26.0561 75.6382 26.358C75.6382 26.5908 75.7273 26.7863 75.9027 26.9473C76.0781 27.1083 76.2994 27.2406 76.5611 27.3412C76.8227 27.4418 77.1964 27.5683 77.6823 27.7207C78.4298 27.9421 79.0336 28.1635 79.4993 28.3791C79.9651 28.5947 80.3676 28.9225 80.7097 29.3566C81.0518 29.7907 81.2243 30.3542 81.2243 31.0528C81.2243 31.8693 81.0087 32.5363 80.5803 33.051L80.5746 33.0423Z" fill="#040000"/>
<path d="M85.1832 34.2988L82.5957 32.6169V23.2185H85.1832V34.2988Z" fill="#040000"/>
<path fill-rule="evenodd" clip-rule="evenodd" d="M93.886 31.2196C93.2967 31.8521 92.4888 32.1655 91.4567 32.1655H90.2578V25.1936H91.4567C92.4859 25.1936 93.2967 25.5099 93.886 26.1395C94.2972 26.588 94.5703 27.1429 94.6767 27.7409H97.4453C97.2843 26.5593 96.7035 25.4725 95.8094 24.6819C94.6738 23.6555 93.2219 23.1438 91.4567 23.1438H87.561V34.2154H91.4567C93.2219 34.2154 94.6738 33.7008 95.8094 32.6715C96.7352 31.832 97.2843 30.5641 97.4539 29.3221H94.691C94.5674 29.9891 94.3029 30.774 93.8832 31.2196H93.886Z" fill="#040000"/>
<path fill-rule="evenodd" clip-rule="evenodd" d="M106.614 25.1649L107.442 23.115H99.6133V27.7438H102.224V29.3221H99.6133V34.2154H107.442V32.1655H102.307V29.5981H106.068V27.7725H102.31V25.1649H106.614Z" fill="#040000"/>
</g>
</g>
</g>
<defs>
<clipPath id="clip0_525_85731">
<rect width="230" height="57.5" fill="white"/>
</clipPath>
<clipPath id="clip1_525_85731">
<rect width="230" height="57.5" fill="white"/>
</clipPath>
</defs>
</svg>
