<svg width="94" height="24" viewBox="0 0 94 24" fill="none" xmlns="http://www.w3.org/2000/svg">
<circle cx="12" cy="12" r="12" fill="#E0EE8D"/>
<path fill-rule="evenodd" clip-rule="evenodd" d="M5.73336 6H18.1334L15.2 8.93333H8.66667L8.66667 15.0667L5.73334 18L5.73334 8.53333H5.73336V6ZM14.867 18.067V13.3333H10.1333L13.0998 10.3669H17.8335V15.1006L14.867 18.067Z" fill="black"/>
<path d="M34.352 18.16C33.552 18.16 32.8 18.016 32.096 17.728C31.4027 17.4293 30.7893 17.0133 30.256 16.48C29.7333 15.9467 29.3227 15.3333 29.024 14.64C28.736 13.936 28.592 13.1787 28.592 12.368C28.592 11.5467 28.7413 10.7893 29.04 10.096C29.3387 9.392 29.7547 8.77867 30.288 8.256C30.8213 7.72267 31.4453 7.312 32.16 7.024C32.8747 6.72533 33.648 6.576 34.48 6.576C35.408 6.576 36.2613 6.752 37.04 7.104C37.8187 7.44533 38.464 7.93067 38.976 8.56L37.504 10.032C37.152 9.57333 36.7147 9.22133 36.192 8.976C35.6693 8.73067 35.0933 8.608 34.464 8.608C33.7493 8.608 33.1147 8.768 32.56 9.088C32.016 9.39733 31.5893 9.83467 31.28 10.4C30.9707 10.9547 30.816 11.6053 30.816 12.352C30.816 13.0987 30.9653 13.76 31.264 14.336C31.5733 14.9013 31.9893 15.344 32.512 15.664C33.0453 15.984 33.6533 16.144 34.336 16.144C35.04 16.144 35.6427 16.016 36.144 15.76C36.6453 15.4933 37.0293 15.1093 37.296 14.608C37.5627 14.096 37.696 13.472 37.696 12.736L39.12 13.712L34.208 13.664V11.776H39.936V12.08C39.936 13.424 39.696 14.5493 39.216 15.456C38.736 16.352 38.0747 17.0293 37.232 17.488C36.4 17.936 35.44 18.16 34.352 18.16ZM45.0131 18.16C44.2345 18.16 43.5305 17.984 42.9011 17.632C42.2825 17.2693 41.7865 16.784 41.4131 16.176C41.0505 15.5573 40.8691 14.8693 40.8691 14.112C40.8691 13.3547 41.0505 12.6773 41.4131 12.08C41.7758 11.472 42.2718 10.992 42.9011 10.64C43.5305 10.2773 44.2291 10.096 44.9971 10.096C45.7865 10.096 46.4905 10.2773 47.1091 10.64C47.7385 10.992 48.2345 11.472 48.5971 12.08C48.9598 12.6773 49.1411 13.3547 49.1411 14.112C49.1411 14.8693 48.9598 15.5573 48.5971 16.176C48.2345 16.784 47.7385 17.2693 47.1091 17.632C46.4905 17.984 45.7918 18.16 45.0131 18.16ZM44.9971 16.208C45.3918 16.208 45.7385 16.1227 46.0371 15.952C46.3465 15.7707 46.5811 15.5253 46.7411 15.216C46.9118 14.896 46.9971 14.5333 46.9971 14.128C46.9971 13.7227 46.9118 13.3653 46.7411 13.056C46.5705 12.7467 46.3358 12.5067 46.0371 12.336C45.7385 12.1547 45.3918 12.064 44.9971 12.064C44.6131 12.064 44.2718 12.1547 43.9731 12.336C43.6745 12.5067 43.4398 12.7467 43.2691 13.056C43.0985 13.3653 43.0131 13.7227 43.0131 14.128C43.0131 14.5333 43.0985 14.896 43.2691 15.216C43.4398 15.5253 43.6745 15.7707 43.9731 15.952C44.2718 16.1227 44.6131 16.208 44.9971 16.208ZM52.3145 13.296V11.6H54.9225C55.4558 11.6 55.8665 11.4667 56.1545 11.2C56.4532 10.9227 56.6025 10.544 56.6025 10.064C56.6025 9.62667 56.4532 9.264 56.1545 8.976C55.8665 8.67733 55.4558 8.528 54.9225 8.528H52.3145V6.752H55.1145C55.8398 6.752 56.4745 6.896 57.0185 7.184C57.5732 7.46133 57.9998 7.84533 58.2985 8.336C58.6078 8.82667 58.7625 9.392 58.7625 10.032C58.7625 10.6933 58.6078 11.2693 58.2985 11.76C57.9998 12.24 57.5732 12.6187 57.0185 12.896C56.4638 13.1627 55.8185 13.296 55.0825 13.296H52.3145ZM50.7145 18V6.752H52.8905V18H50.7145ZM56.8585 18L53.1465 13.136L55.1465 12.512L59.4985 18H56.8585ZM63.9194 18.16C63.1407 18.16 62.4367 17.984 61.8074 17.632C61.1887 17.2693 60.6927 16.784 60.3194 16.176C59.9567 15.5573 59.7754 14.8693 59.7754 14.112C59.7754 13.3547 59.9567 12.6773 60.3194 12.08C60.682 11.472 61.178 10.992 61.8074 10.64C62.4367 10.2773 63.1354 10.096 63.9034 10.096C64.6927 10.096 65.3967 10.2773 66.0154 10.64C66.6447 10.992 67.1407 11.472 67.5034 12.08C67.866 12.6773 68.0474 13.3547 68.0474 14.112C68.0474 14.8693 67.866 15.5573 67.5034 16.176C67.1407 16.784 66.6447 17.2693 66.0154 17.632C65.3967 17.984 64.698 18.16 63.9194 18.16ZM63.9034 16.208C64.298 16.208 64.6447 16.1227 64.9434 15.952C65.2527 15.7707 65.4874 15.5253 65.6474 15.216C65.818 14.896 65.9034 14.5333 65.9034 14.128C65.9034 13.7227 65.818 13.3653 65.6474 13.056C65.4767 12.7467 65.242 12.5067 64.9434 12.336C64.6447 12.1547 64.298 12.064 63.9034 12.064C63.5194 12.064 63.178 12.1547 62.8794 12.336C62.5807 12.5067 62.346 12.7467 62.1754 13.056C62.0047 13.3653 61.9194 13.7227 61.9194 14.128C61.9194 14.5333 62.0047 14.896 62.1754 15.216C62.346 15.5253 62.5807 15.7707 62.8794 15.952C63.178 16.1227 63.5194 16.208 63.9034 16.208ZM69.3968 18V6.432H71.4928V18H69.3968ZM73.3499 18V6.432H75.4459V18H73.3499ZM80.599 18.16C79.9163 18.16 79.3083 18.016 78.775 17.728C78.2523 17.44 77.8417 17.04 77.543 16.528C77.2443 16.016 77.095 15.424 77.095 14.752V10.272H79.207V14.704C79.207 15.024 79.2603 15.3013 79.367 15.536C79.4737 15.76 79.6337 15.9307 79.847 16.048C80.0603 16.1653 80.311 16.224 80.599 16.224C81.0363 16.224 81.3777 16.0907 81.623 15.824C81.8683 15.5573 81.991 15.184 81.991 14.704V10.272H84.087V14.752C84.087 15.4347 83.9377 16.032 83.639 16.544C83.351 17.056 82.9403 17.456 82.407 17.744C81.8843 18.0213 81.2817 18.16 80.599 18.16ZM90.5881 18L88.5561 14.864L88.1241 14.544L85.1161 10.272H87.5961L89.4681 13.104L89.8681 13.408L93.0521 18H90.5881ZM84.9561 18L88.1081 13.584L89.3081 15.008L87.3241 18H84.9561ZM89.9481 14.528L88.7161 13.12L90.5561 10.272H92.9081L89.9481 14.528Z" fill="black"/>
</svg>
